# This file uses centimeters as units for non-parametric coordinates.

mtllib Land.mtl
g default
v -13.928520 -19.195241 6.036381
v -8.248898 -10.688372 -1.975204
v -16.997291 -19.936705 0.492401
v -2.200248 -19.499420 5.973720
v -0.370374 -9.951601 -1.960717
v -8.273647 -10.759891 -1.915580
v -10.407555 -20.836492 6.069914
v -11.979168 -14.591047 -30.913913
v -12.442025 -25.473235 -37.772895
v -18.060458 -24.593016 -32.053471
v -0.715227 -13.528417 -31.057970
v -2.457239 -23.775942 -37.715851
v -10.677140 -24.794203 -37.772674
v -8.488557 -14.198168 -31.053290
v -35.125805 -59.314830 24.561651
v -33.064802 -58.923137 29.618430
v -21.450368 -25.581468 19.894024
v -29.471227 -27.815098 13.907295
v 38.052316 -60.771608 40.413737
v 74.038297 -58.612841 24.588977
v 14.627307 -27.514723 13.517545
v 8.466263 -29.382478 16.834192
v -17.375679 -20.874741 -6.012096
v -8.820076 -11.638284 -6.811885
v -9.658683 -10.454849 -25.492172
v -19.068451 -19.575874 -25.422585
v 3.633303 -18.771207 6.139008
v 9.215474 -21.411310 0.940057
v 5.285769 -11.170594 -2.299796
v 5.403146 -11.901578 -6.930462
v 9.468903 -22.384941 -5.800795
v 12.224318 -21.092558 -25.182587
v 7.326505 -10.663841 -25.478869
v -28.460212 -35.794702 -39.458843
v -21.973873 -37.617112 -45.626339
v 6.037000 -14.849884 -30.865123
v 10.003130 -25.955316 -32.296057
v 4.407733 -25.091409 -37.819445
v 9.135707 -38.587608 -45.639243
v 15.324352 -37.050039 -38.884266
v 37.392509 -61.950899 -53.960499
v 56.767719 -62.489448 -49.103968
v -51.063381 -60.130578 -59.647565
v -58.505874 -60.348304 -53.505059
v -0.557275 -10.621718 -6.762057
v 0.004851 -9.362780 -25.476223
v -8.634843 -10.163000 -25.674232
v -8.278486 -11.354445 -6.760279
v 17.946910 -28.436132 -24.477393
v 14.925085 -29.347500 -3.332133
v 80.906872 -59.268576 -20.094169
v 74.038297 -61.334365 -2.127097
v -44.055960 -62.034033 -2.127108
v -45.828107 -59.967847 -20.094178
v -31.127138 -27.010686 -24.475789
v -28.040315 -27.923474 -3.341442
v -13.916835 -59.168696 58.405332
v -0.734046 -59.333852 52.052576
v -0.733971 -60.537592 -48.283327
v -8.463056 -60.372436 -47.116445
v 0.208790 -37.941967 -45.444025
v -8.786157 -37.617112 -45.263017
v 0.292214 -31.240041 15.597467
v -8.701373 -25.581468 19.894024
v -17.668822 -21.382050 -15.596893
v -9.109962 -12.148013 -16.006582
v -8.385808 -11.860177 -16.061692
v -0.690206 -11.093599 -15.974721
v 5.537012 -12.383995 -16.059657
v 9.616518 -22.895372 -15.385308
v 14.984413 -30.172886 -13.921454
v 74.038297 -61.395897 -11.281364
v -38.763714 -62.095562 -11.281373
v -28.187781 -28.748276 -13.925375
v -35.650544 -41.226346 24.456998
v -12.038946 -41.341570 33.564085
v -0.189338 -41.600235 33.788963
v 22.348898 -44.111170 32.736239
v 28.852716 -41.524928 24.868496
v 29.010775 -43.774732 -2.766694
v 29.042264 -46.157251 -12.682647
v 51.108181 -41.395073 -22.420657
v 29.222695 -48.986949 -43.679646
v 22.394617 -49.550342 -49.543815
v -0.233579 -48.544490 -46.425142
v -8.634548 -48.294570 -45.594994
v -35.622673 -48.181084 -50.704062
v -42.546962 -47.315964 -45.581508
v -35.068469 -42.475142 -22.419810
v -35.556746 -44.395788 -12.684733
v -40.715893 -43.929137 -2.771641
v -41.258946 -42.595686 18.906630
v -33.607716 -32.302781 15.425196
v -32.373045 -32.783113 -3.168440
v -32.451885 -33.499173 -13.548691
v -35.928383 -31.706004 -23.851553
v -32.722083 -39.292788 -40.829343
v -26.116820 -40.824547 -46.792873
v -8.740125 -40.859002 -45.652277
v 0.074478 -41.161105 -46.026881
v 13.161375 -41.916114 -46.824749
v 19.544167 -40.674324 -40.340241
v 22.771642 -33.233662 -23.852926
v 19.832023 -34.507100 -13.545327
v 19.201786 -34.309498 -3.160454
v 18.946427 -32.350102 15.094861
v 12.681308 -31.335281 24.021715
v 0.146006 -30.682785 26.165276
v -8.667407 -30.366551 23.756950
v -25.761825 -30.331566 21.279434
v -23.955726 -24.333179 7.978475
v -23.328771 -24.808230 -4.521759
v -23.556303 -25.492713 -14.664116
v -25.826904 -23.724811 -24.894234
v -23.861004 -30.844027 -36.185980
v -17.748921 -32.250029 -42.162647
v -9.596004 -31.949925 -42.162549
v -0.949433 -31.681179 -42.137435
v 7.047232 -32.622855 -42.183219
v 12.972593 -32.146637 -35.972553
v 15.417763 -25.190581 -24.789060
v 12.612028 -26.956530 -14.568416
v 12.513681 -26.270341 -4.423177
v 12.235506 -24.817271 7.958823
v 6.330298 -24.692742 12.107369
v -0.809350 -25.298187 11.344175
v -9.455433 -22.604032 16.538547
v -18.126027 -22.759024 13.769528
v -37.711662 -45.136115 25.597319
v -12.453831 -45.280135 40.342137
v -0.309682 -45.518141 38.945644
v 25.818270 -47.791978 37.547514
v 49.678331 -43.085942 21.565946
v 49.801468 -45.439963 -2.625388
v 49.826004 -47.309705 -12.373060
v 55.079381 -45.343886 -21.906663
v 32.695995 -51.970069 -44.878045
v 25.708116 -52.290009 -50.519599
v -0.344132 -51.194137 -46.521167
v -8.596660 -50.962944 -45.555577
v -39.034004 -50.821098 -52.948030
v -46.072780 -50.195210 -47.959382
v -32.736120 -46.339823 -21.906006
v -34.135751 -48.306216 -12.374687
v -40.782187 -47.929070 -2.629244
v -39.728978 -46.289463 20.155999
v -35.190508 -51.665139 27.501566
v -13.146655 -51.857245 51.465460
v -0.510645 -52.060752 47.211092
v 31.611865 -53.938652 42.219751
v 55.614974 -50.438908 22.750425
v 55.679802 -52.966963 -2.389416
v 55.692709 -53.980405 -11.856074
v 56.189594 -51.938103 -21.048333
v 38.496138 -56.951658 -46.879285
v 31.241413 -56.865049 -52.149082
v -0.528745 -55.618852 -46.988427
v -8.533389 -55.418932 -45.866242
v -44.730672 -55.229722 -56.751144
v -51.960634 -55.003341 -51.462495
v -33.414385 -52.793550 -21.047991
v -33.931280 -54.836340 -11.856934
v -40.593247 -54.608660 -2.391451
v -34.737401 -52.457796 22.242354
vt 0.390007 0.482821
vt 0.369127 0.432950
vt 0.390032 0.503662
vt 0.388412 0.426583
vt 0.428518 0.431808
vt 0.426424 0.482489
vt 0.386154 0.582438
vt 0.361642 0.664781
vt 0.373262 0.608873
vt 0.297062 0.728962
vt 0.388847 0.610682
vt 0.422720 0.609414
vt 0.416940 0.662803
vt 0.155854 0.247609
vt 0.707308 0.168810
vt 0.458148 0.437555
vt 0.329424 0.591086
vt 0.392882 0.502228
vt 0.390453 0.582844
vt 0.493234 0.461065
vt 0.503142 0.494860
vt 0.424806 0.581138
vt 0.426277 0.502118
vt 0.499704 0.594094
vt 0.452968 0.609861
vt 0.088681 0.855303
vt 0.492807 0.639610
vt 0.534426 0.696538
vt 0.491643 0.734869
vt 0.814072 0.792970
vt 0.695831 0.835371
vt 0.933633 0.482675
vt 0.030108 0.582717
vt 0.355795 0.062555
vt 0.452673 0.363901
vt 0.452937 0.582577
vt 0.454881 0.662929
vt 0.440651 0.870482
vt 0.545197 0.600845
vt 0.256309 0.689129
vt 0.328621 0.634827
vt 0.451806 0.087974
vt 0.495219 0.365539
vt 0.960845 0.605616
vt 0.435857 0.739956
vt 0.040839 0.823404
vt 0.262254 0.592129
vt 0.450827 0.484752
vt 0.453668 0.503512
vt 0.524760 0.391703
vt 0.922226 0.307482
vt 0.543754 0.480142
vt 0.057962 0.420856
vt 0.290040 0.385991
vt 0.332796 0.493459
vt 0.271982 0.475374
vt 0.343907 0.461323
vt 0.382519 0.870461
vt 0.371777 0.663685
vt 0.379424 0.739179
vt 0.390007 0.482785
vt 0.335026 0.361873
vt 0.188581 0.218561
vt 0.397760 0.354093
vt 0.326820 0.540658
vt 0.384855 0.542344
vt 0.388608 0.542501
vt 0.424765 0.541377
vt 0.454959 0.542407
vt 0.506458 0.542692
vt 0.548546 0.537656
vt 0.930386 0.543414
vt 0.053281 0.499967
vt 0.262372 0.532766
vt 0.242074 0.310009
vt 0.374294 0.242531
vt 0.447011 0.240820
vt 0.586571 0.257375
vt 0.624713 0.311763
vt 0.646005 0.471917
vt 0.650948 0.525514
vt 0.738040 0.601358
vt 0.629533 0.748264
vt 0.583983 0.781676
vt 0.436304 0.798960
vt 0.380089 0.798273
vt 0.199190 0.781317
vt 0.150963 0.742417
vt 0.174144 0.585953
vt 0.163766 0.520187
vt 0.166614 0.451446
vt 0.213210 0.338541
vt 0.264348 0.372074
vt 0.238059 0.471192
vt 0.227788 0.530352
vt 0.230019 0.591742
vt 0.223623 0.699641
vt 0.268147 0.743261
vt 0.379433 0.756792
vt 0.436032 0.757514
vt 0.518821 0.749234
vt 0.562261 0.711412
vt 0.581551 0.603095
vt 0.579756 0.536938
vt 0.576372 0.477679
vt 0.556170 0.375972
vt 0.517380 0.327303
vt 0.447694 0.313645
vt 0.397867 0.321992
vt 0.309553 0.344087
vt 0.313821 0.420035
vt 0.299356 0.483612
vt 0.291765 0.536411
vt 0.291954 0.592159
vt 0.290820 0.664628
vt 0.326656 0.700225
vt 0.375480 0.705138
vt 0.427025 0.704461
vt 0.474880 0.701952
vt 0.515271 0.670434
vt 0.524454 0.598096
vt 0.529802 0.540288
vt 0.525448 0.486648
vt 0.510204 0.422617
vt 0.479603 0.399789
vt 0.441113 0.395344
vt 0.392815 0.376953
vt 0.349442 0.392847
vt 0.222385 0.295492
vt 0.368993 0.198075
vt 0.447055 0.204027
vt 0.610378 0.225767
vt 0.746121 0.335715
vt 0.760522 0.477264
vt 0.760667 0.538851
vt 0.766842 0.603484
vt 0.654831 0.760649
vt 0.607943 0.793575
vt 0.436676 0.814182
vt 0.380619 0.813579
vt 0.174305 0.798216
vt 0.127073 0.763455
vt 0.149218 0.579256
vt 0.139892 0.519435
vt 0.144705 0.445846
vt 0.201163 0.321339
vt 0.207955 0.260281
vt 0.364215 0.123038
vt 0.447797 0.141536
vt 0.651973 0.188087
vt 0.799954 0.318785
vt 0.813818 0.480729
vt 0.813144 0.542287
vt 0.803962 0.606469
vt 0.698426 0.780751
vt 0.649053 0.813242
vt 0.437800 0.840237
vt 0.381741 0.839713
vt 0.133491 0.826722
vt 0.086950 0.795815
vt 0.112377 0.571622
vt 0.103607 0.513254
vt 0.106085 0.436088
vt 0.179367 0.283091
vn -0.411097 0.896113 0.167276
vn -0.412369 0.895737 0.166154
vn -0.491438 0.793482 0.358991
vn -0.457607 0.840826 0.289149
vn -0.706669 0.707152 0.023546
vn -0.261070 0.916750 0.302343
vn 0.074608 0.832549 0.548904
vn -0.003790 0.754341 0.656472
vn -0.603969 0.796432 0.030297
vn -0.723277 0.689898 -0.030170
vn -0.665398 0.745512 -0.038169
vn 0.153875 0.756130 0.636074
vn 0.200050 0.855957 0.476779
vn 0.210304 0.754696 0.621455
vn 0.142810 0.891669 0.429571
vn -0.010167 0.838564 0.544708
vn 0.009674 0.738048 0.674679
vn 0.228209 0.726988 0.647618
vn 0.591629 0.724927 0.352783
vn 0.034417 0.996096 -0.081293
vn -0.116283 0.990270 -0.076445
vn -0.582599 0.613809 -0.532744
vn -0.505760 0.666929 -0.547186
vn -0.654904 0.749725 -0.094936
vn -0.672119 0.740332 -0.012792
vn -0.417686 0.636482 -0.648405
vn -0.070361 0.545831 -0.834936
vn -0.082097 0.545135 -0.834319
vn -0.400982 0.715905 -0.571571
vn -0.400842 0.715875 -0.571707
vn -0.381959 0.708527 -0.593377
vn -0.381534 0.707780 -0.594542
vn 0.032196 0.792921 -0.608474
vn -0.086309 0.801705 -0.591455
vn -0.109880 0.974798 -0.194154
vn 0.043270 0.987593 -0.150954
vn 0.016806 0.544458 -0.838620
vn 0.028004 0.543865 -0.838705
vn 0.109560 0.537471 -0.836135
vn 0.109560 0.537471 -0.836135
vn -0.018456 0.503637 -0.863718
vn 0.015791 0.493939 -0.869353
vn 0.001021 0.388262 -0.921548
vn 0.008731 0.379731 -0.925056
vn -0.643323 0.567181 0.514238
vn -0.623228 0.592856 0.510009
vn -0.567576 0.652135 0.502571
vn -0.577103 0.644723 0.501282
vn 0.291411 0.840680 0.456439
vn 0.295665 0.839472 0.455926
vn 0.431428 0.800359 0.416287
vn 0.436191 0.796998 0.417770
vn 0.266165 0.861982 0.431444
vn 0.262690 0.860871 0.435769
vn 0.382556 0.821961 0.421938
vn 0.355031 0.826328 0.437191
vn -0.639815 0.757137 0.131830
vn -0.543740 0.831579 0.113240
vn -0.514952 0.833681 -0.199499
vn -0.595460 0.781818 -0.184902
vn -0.702179 0.705337 0.097186
vn -0.120555 0.990127 0.071523
vn 0.766350 0.584233 0.267170
vn 0.933195 0.359174 -0.011878
vn 0.933198 0.359165 -0.011908
vn 0.031356 0.996638 0.075691
vn 0.195387 0.976386 0.092164
vn 0.187821 0.966372 -0.175637
vn 0.760642 0.632110 -0.147851
vn 0.778510 0.610681 0.144881
vn 0.781454 0.610221 0.130230
vn 0.759488 0.623595 -0.185224
vn 0.914208 0.405147 0.008942
vn 0.911425 0.403937 -0.078347
vn 0.692541 0.450016 -0.563801
vn 0.786770 0.352244 -0.506870
vn -0.347301 0.736528 -0.580438
vn -0.353307 0.730201 -0.584791
vn -0.328056 0.758790 -0.562687
vn -0.321499 0.767029 -0.555253
vn 0.571176 0.576027 -0.584766
vn 0.575630 0.575560 -0.580845
vn 0.549575 0.577979 -0.603247
vn 0.549575 0.577979 -0.603247
vn 0.424337 0.714544 -0.556206
vn 0.424030 0.714359 -0.556678
vn 0.422760 0.713592 -0.558623
vn 0.423152 0.713829 -0.558024
vn 0.447057 0.887927 -0.108289
vn 0.562002 0.746349 0.356534
vn 0.362567 0.883188 0.297529
vn 0.393584 0.907590 -0.146190
vn -0.971789 0.215211 0.096490
vn -0.974533 0.141075 -0.174311
vn -0.892411 0.450470 0.026080
vn -0.856426 0.513749 -0.050954
vn -0.182923 0.674456 0.715296
vn 0.064690 0.695330 0.715773
vn 0.066740 0.739267 0.670097
vn -0.089082 0.660762 0.745290
vn -0.102959 0.099878 -0.989658
vn 0.099442 0.153160 -0.983185
vn 0.067175 0.143581 -0.987356
vn -0.074634 0.129818 -0.988725
vn -0.167927 0.625608 0.761850
vn -0.098504 0.951290 0.292136
vn 0.152308 0.772672 -0.616264
vn 0.047439 0.497313 -0.866273
vn -0.001077 0.355897 -0.934525
vn 0.672874 0.557990 -0.485684
vn 0.680060 0.558773 -0.474649
vn -0.542504 0.693864 -0.473543
vn -0.447724 0.721704 -0.527908
vn 0.099188 0.702976 0.704263
vn 0.117337 0.725760 0.677867
vn 0.350806 0.779232 -0.519358
vn 0.351935 0.751786 -0.557638
vn -0.125910 0.123859 -0.984279
vn -0.096108 0.151076 -0.983839
vn -0.845692 0.512924 -0.147357
vn -0.950634 0.237241 0.200032
vn 0.204311 0.975600 -0.080385
vn 0.796409 0.602516 -0.052035
vn 0.797878 0.600989 -0.046931
vn 0.798352 0.600608 -0.043635
vn 0.796600 0.602229 -0.052423
vn 0.721709 0.690085 -0.054033
vn 0.712588 0.699115 -0.058791
vn 0.271860 0.958704 -0.083544
vn 0.340193 0.934552 -0.104309
vn -0.792377 0.606759 -0.063110
vn -0.805469 0.583974 -0.100963
vn -0.915397 0.379814 -0.133376
vn -0.924033 0.380352 -0.038671
vn -0.569472 0.819940 -0.058314
vn -0.569838 0.820031 -0.053245
vn -0.666159 0.743745 -0.055455
vn -0.705883 0.705431 -0.064001
vn 0.131323 0.169588 -0.976726
vn 0.182425 0.227417 -0.956558
vn -0.005044 0.516817 -0.856081
vn 0.034556 0.314845 -0.948514
vn -0.072836 0.613971 0.785961
vn -0.018307 0.909884 0.414458
vn -0.203414 0.584603 0.785406
vn -0.261030 0.662060 0.702524
vn -0.654396 0.749007 0.103710
vn 0.913022 0.380551 0.146874
vn 0.915570 0.379241 0.133820
vn 0.629774 0.498615 -0.595625
vn -0.430106 0.637893 0.638828
vn -0.267253 0.721333 0.638948
vn 0.113916 0.785034 0.608888
vn 0.122093 0.750914 0.649015
vn 0.301589 0.740755 0.600272
vn 0.359597 0.670965 0.648456
vn 0.296648 0.951177 -0.085214
vn 0.307180 0.944830 -0.113737
vn 0.349140 0.926256 0.141951
vn 0.629783 0.723655 -0.282306
vn 0.563630 0.510634 -0.649287
vn 0.420211 0.712045 -0.562507
vn 0.420619 0.712293 -0.561888
vn -0.148236 0.136291 -0.979516
vn -0.139454 0.113923 -0.983653
vn 0.172147 0.228361 -0.958236
vn 0.250168 0.267356 -0.930557
vn -0.305579 0.801826 -0.513514
vn -0.309753 0.801616 -0.511337
vn -0.838033 0.346902 0.421141
vn -0.944157 0.165684 0.284811
vn -0.925843 -0.119204 -0.358615
vn -0.964569 -0.243046 -0.102638
vn -0.945721 -0.300302 0.124223
vn -0.912233 -0.135237 0.386707
vn -0.913145 -0.205382 0.352115
vn 0.425590 0.715297 -0.554278
vn 0.425590 0.715297 -0.554278
vn 0.655085 0.741252 -0.146319
vn 0.582497 0.670880 -0.458931
vn 0.685439 0.714269 0.141396
vn 0.741284 0.669904 -0.041550
vn 0.755567 0.652447 -0.058575
vn -0.053676 0.543964 -0.837390
vn -0.040382 0.514663 -0.856441
vn 0.006522 0.503718 -0.863844
vn 0.068411 0.507288 -0.859057
vn 0.762310 0.638082 -0.108326
vn 0.647096 0.554528 -0.523226
vn 0.774904 0.610908 0.162221
vn 0.798565 0.600658 -0.038779
vn 0.797426 0.600987 -0.054098
vn -0.617489 0.469822 0.630853
vn -0.405385 0.561271 0.721553
vn 0.198257 0.604964 0.771176
vn 0.205806 0.440815 0.873685
vn 0.377709 0.617772 0.689705
vn 0.370479 0.610270 0.700225
vn 0.535905 0.840155 -0.083344
vn 0.535891 0.840555 -0.079292
vn 0.488573 0.859852 0.148155
vn 0.391865 0.883277 -0.257418
vn 0.400397 0.797830 -0.450722
vn 0.277426 0.764436 -0.581955
vn 0.333774 0.746015 -0.576243
vn -0.142888 0.203765 -0.968536
vn -0.141989 0.181092 -0.973162
vn 0.202076 0.230085 -0.951959
vn 0.275478 0.224806 -0.934652
vn -0.351814 0.783755 -0.511815
vn -0.371341 0.773184 -0.514094
vn -0.594516 0.759070 0.265261
vn -0.734739 0.611493 0.293657
vn -0.888825 0.440050 -0.127849
vn -0.995160 0.092237 -0.033900
vn -0.973036 0.063465 0.221751
vn -0.937964 -0.288860 0.191792
vn -0.947155 -0.259756 0.188215
vn -0.751552 0.296417 0.589328
vn -0.421251 0.478718 0.770310
vn 0.267046 0.414066 0.870193
vn 0.231064 0.300937 0.925228
vn 0.362158 0.601575 0.712004
vn 0.362158 0.601575 0.712004
vn 0.412768 0.906256 -0.091228
vn 0.408285 0.909248 -0.081066
vn 0.341701 0.922331 0.180408
vn 0.283369 0.945701 -0.159223
vn 0.261086 0.905290 -0.335087
vn 0.240473 0.774903 -0.584550
vn 0.240473 0.774903 -0.584550
vn -0.140183 0.221879 -0.964945
vn -0.141589 0.215819 -0.966113
vn 0.213809 0.224324 -0.950770
vn 0.279202 0.216247 -0.935566
vn -0.402529 0.755272 -0.517238
vn -0.402529 0.755272 -0.517238
vn -0.545062 0.805085 0.233977
vn -0.550885 0.793779 0.257760
vn -0.756814 0.652169 -0.043690
vn -0.937172 0.348359 0.018818
vn -0.925819 0.292862 0.238938
vn -0.984357 -0.070397 0.161509
vn -0.984357 -0.070397 0.161509
s 1
g Land House
usemtl lambert2SG
f 128/128/1 111/111/2 18/54/3 17/62/4
f 2/1/5 1/2/6 7/4/7 6/61/8
f 3/57/9 2/1/5 24/3/10 23/55/11
f 126/126/12 127/127/13 64/64/14 63/35/15
f 5/6/16 4/5/17 27/16/18 29/48/19
f 6/61/8 5/6/16 45/23/20 48/18/21
f 8/9/22 10/41/23 26/17/24 25/7/25
f 9/8/26 8/9/22 14/11/27 13/59/28
f 115/115/29 116/116/30 35/10/31 34/40/32
f 11/12/33 14/11/34 47/19/35 46/22/36
f 12/13/37 11/12/38 36/25/39 38/37/40
s 6
f 117/117/41 118/118/42 61/45/43 62/60/44
s 1
f 92/92/45 75/75/46 110/110/47 93/93/48
f 78/78/49 79/79/50 106/106/51 107/107/52
f 22/43/53 21/50/54 124/124/55 125/125/56
f 74/74/57 113/113/58 114/114/59 55/47/60
f 25/7/25 66/66/61 67/67/62 47/19/35
f 29/48/19 28/20/63 31/21/64 30/49/65
f 68/68/66 69/69/67 33/36/68 46/22/36
s 11
f 121/121/69 122/122/70 71/71/71 49/39/72
s 1
f 33/36/73 32/24/74 37/27/75 36/25/76
f 97/97/77 98/98/78 87/87/79 88/88/80
f 119/119/81 120/120/82 40/28/83 39/29/84
s 14
f 101/101/85 102/102/86 83/83/87 84/84/88
s 15
f 103/103/89 104/104/90 81/81/91 82/82/92
s 1
f 89/89/93 90/90/94 95/95/95 96/96/96
f 76/76/97 77/77/98 108/108/99 109/109/100
s 6
f 85/85/101 86/86/102 99/99/103 100/100/104
s 1
f 125/125/105 126/126/12 63/35/15 22/43/106
f 11/12/33 46/22/36 33/36/68 36/25/107
s 6
f 61/45/43 118/118/42 119/119/108 39/29/109
s 11
f 120/120/110 121/121/69 49/39/72 40/28/111
s 1
f 34/40/112 55/47/60 114/114/59 115/115/113
f 107/107/114 108/108/99 77/77/98 78/78/115
s 15
f 102/102/116 103/103/89 82/82/92 83/83/117
s 6
f 84/84/118 85/85/101 100/100/104 101/101/119
s 1
f 96/96/96 97/97/120 88/88/121 89/89/93
f 45/23/20 5/6/16 29/48/19 30/49/122
s 11
f 21/50/123 50/52/124 123/123/125 124/124/126
s 15
f 105/105/127 106/106/128 79/79/129 80/80/130
s 1
f 93/93/131 94/94/132 91/91/133 92/92/134
f 111/111/135 112/112/136 56/56/137 18/54/138
s 6
f 98/98/139 99/99/103 86/86/102 87/87/140
f 116/116/141 117/117/41 62/60/44 35/10/142
s 1
f 25/7/25 47/19/35 14/11/34 8/9/22
f 2/1/5 6/61/8 48/18/21 24/3/10
f 17/62/143 64/64/14 127/127/13 128/128/144
f 109/109/100 110/110/145 75/75/146 76/76/97
f 1/2/6 2/1/5 3/57/9
f 4/5/17 5/6/16 6/61/8 7/4/7
f 8/9/22 9/8/26 10/41/23
f 11/12/38 12/13/37 13/59/28 14/11/27
f 65/65/147 66/66/61 25/7/25 26/17/24
f 27/16/18 28/20/63 29/48/19
f 69/69/148 70/70/149 32/24/74 33/36/73
f 36/25/76 37/27/75 38/37/150
f 67/67/62 68/68/66 46/22/36 47/19/35
f 23/55/11 24/3/10 66/66/61 65/65/147
f 67/67/62 66/66/61 24/3/10 48/18/21
f 45/23/20 68/68/66 67/67/62 48/18/21
f 30/49/122 69/69/67 68/68/66 45/23/20
f 30/49/65 31/21/64 70/70/149 69/69/148
s 11
f 71/71/71 122/122/70 123/123/125 50/52/124
s 15
f 80/80/130 81/81/91 104/104/90 105/105/127
s 1
f 94/94/132 95/95/95 90/90/94 91/91/133
f 112/112/136 113/113/58 74/74/57 56/56/137
f 76/76/97 75/75/146 129/129/151 130/130/152
f 130/130/152 131/131/153 77/77/98 76/76/97
f 78/78/115 77/77/98 131/131/153 132/132/154
f 132/132/155 133/133/156 79/79/50 78/78/49
s 15
f 80/80/130 79/79/129 133/133/157 134/134/158
f 134/134/158 135/135/159 81/81/91 80/80/130
f 82/82/92 81/81/91 135/135/159 136/136/160
f 83/83/117 82/82/92 136/136/160 137/137/161
s 14
f 84/84/88 83/83/87 137/137/162 138/138/163
s 6
f 138/138/164 139/139/165 85/85/101 84/84/118
f 139/139/165 140/140/166 86/86/102 85/85/101
f 87/87/140 86/86/102 140/140/166 141/141/167
s 1
f 88/88/80 87/87/79 141/141/168 142/142/169
f 89/89/93 88/88/121 142/142/170 143/143/171
f 143/143/171 144/144/172 90/90/94 89/89/93
f 91/91/133 90/90/94 144/144/172 145/145/173
f 92/92/134 91/91/133 145/145/173 146/146/174
f 146/146/175 129/129/176 75/75/46 92/92/45
f 56/56/137 94/94/132 93/93/131 18/54/138
f 74/74/57 95/95/95 94/94/132 56/56/137
f 96/96/96 95/95/95 74/74/57 55/47/60
f 34/40/112 97/97/120 96/96/96 55/47/60
f 34/40/32 35/10/31 98/98/78 97/97/77
s 6
f 35/10/142 62/60/44 99/99/103 98/98/139
f 100/100/104 99/99/103 62/60/44 61/45/43
f 101/101/119 100/100/104 61/45/43 39/29/109
s 14
f 39/29/177 40/28/178 102/102/86 101/101/85
s 15
f 49/39/179 103/103/89 102/102/116 40/28/180
f 49/39/179 71/71/181 104/104/90 103/103/89
f 105/105/127 104/104/90 71/71/181 50/52/182
f 21/50/183 106/106/128 105/105/127 50/52/182
s 1
f 107/107/52 106/106/51 21/50/54 22/43/53
f 63/35/15 108/108/99 107/107/114 22/43/106
f 109/109/100 108/108/99 63/35/15 64/64/14
f 17/62/143 110/110/145 109/109/100 64/64/14
f 93/93/48 110/110/47 17/62/4 18/54/3
f 23/55/11 112/112/136 111/111/135 3/57/9
f 23/55/11 65/65/147 113/113/58 112/112/136
f 114/114/59 113/113/58 65/65/147 26/17/24
f 115/115/113 114/114/59 26/17/24 10/41/23
f 10/41/23 9/8/26 116/116/30 115/115/29
s 6
f 9/8/184 13/59/185 117/117/41 116/116/141
f 13/59/185 12/13/186 118/118/42 117/117/41
f 119/119/108 118/118/42 12/13/186 38/37/187
s 1
f 38/37/150 37/27/75 120/120/82 119/119/81
s 11
f 32/24/188 121/121/69 120/120/110 37/27/189
f 32/24/188 70/70/190 122/122/70 121/121/69
f 123/123/125 122/122/70 70/70/190 31/21/191
f 124/124/126 123/123/125 31/21/191 28/20/192
s 1
f 125/125/56 124/124/55 28/20/63 27/16/18
f 4/5/17 126/126/12 125/125/105 27/16/18
f 4/5/17 7/4/7 127/127/13 126/126/12
f 128/128/144 127/127/13 7/4/7 1/2/6
f 1/2/6 3/57/9 111/111/2 128/128/1
f 130/130/152 129/129/151 147/147/193 148/148/194
f 148/148/194 149/149/195 131/131/153 130/130/152
f 132/132/154 131/131/153 149/149/195 150/150/196
f 150/150/197 151/151/198 133/133/156 132/132/155
s 15
f 134/134/158 133/133/157 151/151/199 152/152/200
f 152/152/200 153/153/201 135/135/159 134/134/158
f 136/136/160 135/135/159 153/153/201 154/154/202
f 137/137/161 136/136/160 154/154/202 155/155/203
s 14
f 138/138/163 137/137/162 155/155/204 156/156/205
s 6
f 156/156/206 157/157/207 139/139/165 138/138/164
f 157/157/207 158/158/208 140/140/166 139/139/165
f 141/141/167 140/140/166 158/158/208 159/159/209
s 1
f 142/142/169 141/141/168 159/159/210 160/160/211
f 143/143/171 142/142/170 160/160/212 161/161/213
f 161/161/213 162/162/214 144/144/172 143/143/171
f 145/145/173 144/144/172 162/162/214 163/163/215
f 146/146/174 145/145/173 163/163/215 164/164/216
f 164/164/217 147/147/218 129/129/176 146/146/175
f 148/148/194 147/147/193 16/63/219 57/34/220
f 57/34/220 58/42/221 149/149/195 148/148/194
f 150/150/196 149/149/195 58/42/221 19/15/222
f 19/15/223 20/51/224 151/151/198 150/150/197
s 15
f 152/152/200 151/151/199 20/51/225 52/32/226
f 72/72/227 153/153/201 152/152/200 52/32/226
f 154/154/202 153/153/201 72/72/227 51/44/228
f 155/155/203 154/154/202 51/44/228 42/30/229
s 14
f 156/156/205 155/155/204 42/30/230 41/31/231
s 6
f 59/38/232 157/157/207 156/156/206 41/31/233
f 59/38/232 60/58/234 158/158/208 157/157/207
f 159/159/209 158/158/208 60/58/234 43/26/235
s 1
f 160/160/211 159/159/210 43/26/236 44/46/237
f 161/161/213 160/160/212 44/46/238 54/33/239
f 54/33/239 73/73/240 162/162/214 161/161/213
f 163/163/215 162/162/214 73/73/240 53/53/241
f 164/164/216 163/163/215 53/53/241 15/14/242
f 15/14/243 16/63/244 147/147/218 164/164/217
